<?xml version="1.0" standalone="no"?>
<!DOCTYPE svg PUBLIC "-//W3C//DTD SVG 20010904//EN"
 "http://www.w3.org/TR/2001/REC-SVG-20010904/DTD/svg10.dtd">
<svg version="1.0" xmlns="http://www.w3.org/2000/svg"
 width="700.000000pt" height="700.000000pt" viewBox="0 0 700.000000 700.000000"
 preserveAspectRatio="xMidYMid meet">
<metadata>
Created by potrace 1.14, written by Peter Selinger 2001-2017
</metadata>
<g transform="translate(0.000000,700.000000) scale(0.100000,-0.100000)"
fill="#000000" stroke="none">
<path d="M1045 6985 c-185 -29 -370 -102 -522 -207 -99 -68 -233 -202 -301
-301 -76 -110 -148 -268 -185 -404 l-32 -118 -3 -2390 c-2 -1729 0 -2416 8
-2483 33 -270 154 -523 340 -711 106 -108 196 -173 335 -241 132 -65 221 -93
365 -115 143 -22 4757 -22 4900 0 136 21 230 49 347 105 184 87 340 215 461
375 66 87 164 285 192 385 52 188 50 89 50 2620 0 2532 2 2434 -50 2620 -28
99 -106 261 -172 357 -68 99 -202 233 -301 301 -96 66 -258 144 -357 172 -187
52 -86 50 -2630 49 -1847 -1 -2383 -4 -2445 -14z m2520 -1636 c25 -7 58 -29
86 -58 39 -38 51 -61 73 -131 15 -47 97 -299 183 -560 135 -408 161 -479 187
-506 27 -27 92 -51 506 -187 261 -86 513 -168 560 -183 70 -22 93 -35 131 -73
46 -45 69 -96 69 -151 0 -55 -23 -106 -69 -151 l-46 -46 -460 -151 c-253 -83
-505 -165 -560 -183 -156 -49 -135 -10 -329 -604 -92 -281 -174 -532 -183
-560 -10 -33 -32 -66 -62 -96 -91 -92 -211 -92 -302 0 -39 38 -51 61 -73 131
-15 47 -97 299 -183 560 -135 409 -161 479 -188 506 -27 28 -95 53 -555 203
-653 214 -601 194 -648 245 -83 90 -82 205 1 293 46 49 26 41 847 309 277 91
329 111 356 138 27 27 52 94 198 541 92 281 174 532 183 560 29 90 122 163
208 165 17 0 48 -5 70 -11z"/>
<path d="M3498 4424 c-3 -5 -38 -108 -78 -229 -40 -121 -87 -247 -104 -280
-38 -74 -152 -190 -224 -228 -29 -16 -158 -64 -288 -107 -130 -43 -232 -80
-227 -83 4 -2 107 -37 228 -77 121 -40 247 -87 280 -104 74 -38 190 -152 229
-225 16 -29 63 -159 106 -289 42 -129 79 -231 82 -226 3 5 40 113 82 239 97
293 138 364 260 454 78 58 103 68 355 151 129 42 230 79 225 82 -5 3 -108 38
-229 78 -121 40 -247 87 -280 104 -74 38 -190 152 -229 225 -16 29 -63 159
-106 289 -42 129 -79 231 -82 226z"/>
</g>
</svg>
