<svg width="1920" height="831" viewBox="0 0 1920 831" fill="none" xmlns="http://www.w3.org/2000/svg">
<g opacity="0.2">
<path d="M-1.22026 806.183C361.747 643.845 485.608 464.818 530.497 329.003C580.59 177.428 554.756 11.7632 608.832 1.47524C643.457 -5.11477 686.063 56.7463 765.496 192.353C1006.38 603.564 1011.83 712.766 1114.46 741.108C1258.22 780.841 1346.85 593.918 1567.83 597.948C1730.14 600.914 1861.48 704.989 1950 797.502" stroke="#00B7CE" stroke-width="1.00678" stroke-miterlimit="10"/>
<path d="M-9.93658 789.863C342.81 631.021 473.786 457.001 522.235 329.715C576.375 187.469 550.806 30.3615 604.319 22.9311C638.723 18.1505 680.527 78.9535 757.255 209.913C990.436 607.84 997.669 718.402 1099.51 745.345C1244.11 783.066 1328.87 582.622 1552.2 579.893C1557.07 579.834 1561.86 579.834 1566.66 579.952C1725.11 583.981 1858.32 688.106 1948.74 780.05" stroke="#00B7CE" stroke-width="1.00678" stroke-miterlimit="10"/>
<path d="M-18.624 773.544C323.876 618.212 461.864 449.497 513.997 330.437C572.103 197.727 546.896 48.9795 599.83 44.3967C634.023 41.4304 675.032 101.18 749.033 227.488C974.467 612.111 983.437 724.388 1084.6 749.582C1229.9 785.77 1310.97 571.226 1536.6 561.833C1541.55 561.626 1546.48 561.418 1551.42 561.443C1712.49 562.254 1852.63 668.529 1947.51 762.594" stroke="#00B7CE" stroke-width="1.00678" stroke-miterlimit="10"/>
<path d="M-27.3316 757.225C304.97 605.358 449.753 442.353 505.743 331.159C567.653 208.203 542.993 67.6127 595.321 65.8675C629.318 64.7305 669.484 123.403 740.796 245.058C958.509 616.422 969.254 730.178 1069.67 753.819C1215.75 788.207 1293.09 559.747 1520.99 543.774C1526.05 543.418 1531.1 543.077 1536.14 542.929C1699.82 538.153 1846.89 648.947 1946.23 745.128" stroke="#00B7CE" stroke-width="1.00678" stroke-miterlimit="10"/>
<path d="M-36.0364 740.906C286.045 592.549 437.402 435.59 497.488 331.88C562.951 218.891 539.114 86.2652 590.82 87.338C624.628 88.0351 663.96 145.63 732.568 262.633C942.555 620.713 955.079 735.952 1054.75 758.05C1201.64 790.62 1275.23 548.184 1505.38 525.695C1510.55 525.2 1515.72 524.706 1520.91 524.399C1687.19 515.293 1841.19 629.355 1945.02 727.671" stroke="#00B7CE" stroke-width="1.00678" stroke-miterlimit="10"/>
<path d="M-44.7412 724.586C267.126 579.735 424.737 429.237 489.248 332.607C557.893 229.777 535.235 104.933 586.329 108.804C619.959 111.355 658.442 167.852 724.344 280.208C926.616 625.004 940.927 741.706 1039.84 762.287C1187.54 793.012 1257.39 536.541 1489.78 507.65C1495.06 506.992 1500.34 506.325 1505.67 505.9C1674.54 492.502 1835.51 609.788 1943.78 710.23" stroke="#00B7CE" stroke-width="1.00678" stroke-miterlimit="10"/>
<path d="M-53.4402 708.267C248.202 566.906 411.661 423.29 480.988 333.329C552.311 240.772 531.389 123.625 581.818 130.274C615.28 134.684 652.908 190.094 716.1 297.778C910.652 629.291 926.763 747.446 1024.91 766.519C1173.45 795.386 1239.53 524.829 1474.16 489.591C1479.57 488.78 1484.95 487.949 1490.4 487.391C1661.85 469.731 1829.78 590.22 1942.52 692.773" stroke="#00B7CE" stroke-width="1.00678" stroke-miterlimit="10"/>
<path d="M-62.1449 691.948C229.277 554.082 382.035 403.233 472.737 334.05C527.673 240.579 527.537 142.342 577.317 151.74C610.611 158.029 647.385 212.301 707.871 315.378C894.697 633.607 912.61 753.191 1009.99 770.781C1159.36 797.759 1221.67 513.073 1458.55 471.556C1464.06 470.592 1469.57 469.603 1475.15 468.901C1649.19 447.025 1824.11 570.653 1941.29 675.342" stroke="#00B7CE" stroke-width="1.00678" stroke-miterlimit="10"/>
<path d="M-70.8497 675.628C210.358 541.257 367.243 394.428 464.487 334.772C520.115 249.601 523.686 161.084 572.816 173.211C605.948 181.388 641.856 234.513 699.637 332.928C878.716 637.873 898.468 758.871 995.073 774.992C1145.28 800.057 1203.82 501.203 1442.94 453.471C1448.56 452.349 1454.19 451.202 1459.9 450.362C1636.53 424.303 1818.38 551.051 1940.05 657.86" stroke="#00B7CE" stroke-width="1.00678" stroke-miterlimit="10"/>
<path d="M-79.5544 659.309C191.433 528.433 352.447 385.633 456.231 335.494C512.552 258.619 519.834 179.845 568.315 194.676C601.279 204.757 636.332 256.74 691.403 350.498C862.788 642.179 884.332 764.551 980.152 779.219C1131.22 802.351 1185.94 489.299 1427.33 435.402C1433.06 434.126 1438.8 432.826 1444.65 431.842C1623.87 401.626 1812.67 531.464 1938.8 640.399" stroke="#00B7CE" stroke-width="1.00678" stroke-miterlimit="10"/>
<path d="M-88.2563 642.99C172.517 515.61 337.653 376.834 447.978 336.221C504.991 267.647 515.974 198.637 563.806 216.148C596.603 228.151 630.806 278.973 683.172 368.059C846.831 646.441 870.198 770.208 965.229 783.447C1117.15 804.611 1168.05 477.335 1411.72 417.333C1417.56 415.895 1423.42 414.451 1429.39 413.319C1611.22 378.975 1806.96 511.877 1937.55 622.933" stroke="#00B7CE" stroke-width="1.00678" stroke-miterlimit="10"/>
<path d="M-96.9611 626.666C153.581 502.79 322.873 368.034 439.734 336.963C497.439 276.688 512.112 217.458 559.3 237.638C591.918 251.579 625.277 301.214 674.932 385.668C830.871 650.766 856.061 775.888 950.313 787.713C1103.1 806.89 1150.15 465.381 1396.12 399.308C1402.07 397.711 1408.02 396.114 1414.14 394.859C1598.58 356.406 1801.26 492.344 1936.31 605.526" stroke="#00B7CE" stroke-width="1.00678" stroke-miterlimit="10"/>
<path d="M-105.666 610.346C134.662 489.966 308.06 359.234 431.478 337.665C489.876 285.691 508.222 236.263 554.804 259.084C587.233 274.973 619.754 323.422 666.704 403.224C814.944 655.038 841.941 781.499 935.386 791.93C1089.04 809.08 1132.22 453.309 1380.51 381.229C1386.56 379.469 1392.65 377.729 1398.9 376.31C1585.96 333.794 1795.56 472.713 1935.08 588.04" stroke="#00B7CE" stroke-width="1.00678" stroke-miterlimit="10"/>
<path d="M-114.353 594.027C115.738 477.142 293.264 350.439 423.229 338.396C482.314 294.723 504.322 255.099 550.304 280.554C582.538 298.401 614.231 345.644 658.476 420.793C798.974 659.329 827.816 787.125 920.466 796.167C1074.99 811.265 1114.27 441.206 1364.89 363.169C1371.06 361.246 1377.27 359.358 1383.64 357.795C1573.32 311.205 1789.84 453.15 1933.86 570.584" stroke="#00B7CE" stroke-width="1.00678" stroke-miterlimit="10"/>
<path d="M-123.07 577.708C96.8129 464.318 278.472 341.639 414.978 339.113C474.755 303.741 500.41 273.94 545.802 302.035C577.825 321.845 608.707 367.876 650.22 438.378C782.997 663.63 813.668 792.716 905.523 800.409C1060.92 813.425 1096.27 429.134 1349.26 345.115C1355.54 343.033 1361.87 341.002 1368.36 339.291C1560.69 288.657 1784.11 433.583 1932.56 553.137" stroke="#00B7CE" stroke-width="1.00678" stroke-miterlimit="10"/>
<path d="M-131.774 561.389C77.8882 451.494 263.675 332.839 406.722 339.835C467.197 312.763 496.478 292.79 541.301 323.491C573.103 345.273 603.178 390.093 642.013 455.943C767.065 667.906 799.564 798.283 890.629 804.635C1046.9 815.536 1078.3 416.967 1333.68 327.07C1340.06 324.826 1346.51 322.65 1353.15 320.796C1548.1 266.109 1778.43 413.991 1931.34 535.651" stroke="#00B7CE" stroke-width="1.00678" stroke-miterlimit="10"/>
<path d="M-140.479 545.069C58.9689 438.675 248.879 324.059 398.471 340.557C459.607 321.771 492.528 311.651 536.8 344.962C568.364 368.716 597.654 412.315 633.779 473.499C751.11 672.178 785.438 803.825 875.708 808.848C1032.85 817.598 1060.28 404.776 1318.07 308.966C1324.56 306.554 1331.13 304.24 1337.88 302.238C1535.51 243.585 1772.73 394.414 1930.1 518.215" stroke="#00B7CE" stroke-width="1.00678" stroke-miterlimit="10"/>
<path d="M-149.184 528.73C40.0442 425.831 234.082 315.225 390.216 341.264C452.071 330.788 488.563 330.486 532.288 366.408C563.613 392.115 592.125 434.518 625.539 491.069C735.15 676.459 771.307 809.367 860.781 813.085C1018.8 819.67 1042.23 392.6 1302.46 290.936C1309.06 288.356 1315.75 285.904 1322.62 283.753C1522.93 221.081 1767.01 374.842 1928.85 500.783" stroke="#00B7CE" stroke-width="1.00678" stroke-miterlimit="10"/>
<path d="M-157.886 512.416C21.1171 413.046 217.232 368.518 381.968 342.005C443.613 332.083 484.59 349.366 527.79 387.898C558.861 415.583 586.605 456.764 617.313 508.663C719.199 680.78 757.178 814.913 845.863 817.341C1004.74 821.686 1024.17 380.378 1286.85 272.862C1293.55 270.123 1300.38 267.527 1307.37 265.229C1510.35 198.572 1761.28 355.254 1927.61 483.302" stroke="#00B7CE" stroke-width="1.00678" stroke-miterlimit="10"/>
<path d="M-166.59 496.102C2.20862 400.193 200.764 311.562 373.718 342.717C436.109 353.959 480.597 368.212 523.289 409.359C554.095 439.021 581.076 478.977 609.079 526.229C703.25 685.061 743.042 820.411 830.942 821.563C990.673 823.659 1006.08 368.133 1271.24 254.793C1278.05 251.886 1285 249.167 1292.12 246.71C1497.94 176.454 1755.59 335.672 1926.38 465.846" stroke="#00B7CE" stroke-width="1.00678" stroke-miterlimit="10"/>
<path d="M-175.295 479.787C-16.7269 387.374 187.304 295.761 365.468 343.444C428.665 360.361 476.594 387.072 518.788 430.829C549.318 462.469 575.552 501.208 600.845 543.804C687.295 689.357 728.905 826.254 816.021 825.805C976.602 824.974 987.774 355.536 1255.63 236.738C1262.54 233.653 1269.61 230.807 1276.86 228.2C1485.33 153.792 1749.89 316.09 1925.12 448.385" stroke="#00B7CE" stroke-width="1.00678" stroke-miterlimit="10"/>
<path d="M-184 463.473C-35.6515 374.56 174.898 280.06 357.212 344.175C632.052 440.845 655.83 832.315 801.105 830.041C966.712 827.451 970.099 318.171 1261.61 209.691C1472.7 131.135 1744.2 296.513 1923.88 430.938" stroke="#00B7CE" stroke-width="1.00678" stroke-miterlimit="10"/>
</g>
</svg>
