<svg width="428" height="1744" viewBox="0 0 428 1744" fill="none" xmlns="http://www.w3.org/2000/svg">
<g opacity="0.2">
<path d="M-318.335 433.45C-69.1392 617.155 100.958 632.32 211.406 610.549C334.669 586.248 438.863 505.049 466.426 537.76C484.078 558.704 457.657 611.372 394.449 717.36C202.784 1038.76 129.717 1084.44 149.096 1164.92C176.223 1277.67 338.403 1265.91 419.348 1417.3C478.795 1528.49 456.946 1657.55 426.831 1753.13" stroke="#00B7CE" stroke-width="1.27264" stroke-miterlimit="10"/>
<path d="M-310.409 421.267C-67.4894 599.386 101.857 621.3 207.787 605.221C326.165 587.25 424.571 509.52 449.955 542.948C466.278 564.438 440.282 616.157 379.247 718.523C193.804 1029.6 120.476 1077 140.518 1156.41C169.345 1268.95 339.365 1249.38 425.847 1399.75C427.733 1403.03 429.549 1406.28 431.285 1409.58C488.541 1518.57 467.367 1648.92 438.361 1745.57" stroke="#00B7CE" stroke-width="1.27264" stroke-miterlimit="10"/>
<path d="M-302.472 409.104C-65.8496 581.624 102.504 610.331 204.169 599.912C317.488 588.297 410.28 514.026 433.486 548.156C448.48 570.2 422.907 620.975 364.04 719.704C184.815 1020.41 110.965 1069.65 131.955 1147.93C162.103 1260.36 340.425 1232.86 432.364 1382.24C434.382 1385.51 436.394 1388.78 438.246 1392.13C498.709 1501.66 478.678 1637.53 449.904 1738.02" stroke="#00B7CE" stroke-width="1.27264" stroke-miterlimit="10"/>
<path d="M-294.543 396.926C-64.1684 563.864 102.831 599.373 200.546 594.594C308.595 589.306 395.981 518.542 417.005 553.352C430.667 575.967 405.516 625.755 348.831 720.873C175.804 1011.25 101.609 1062.26 123.386 1139.44C155.065 1251.7 341.548 1216.32 438.875 1364.71C441.036 1368 443.185 1371.3 445.195 1374.66C510.489 1483.8 489.977 1626.11 461.438 1730.45" stroke="#00B7CE" stroke-width="1.27264" stroke-miterlimit="10"/>
<path d="M-286.613 384.751C-62.5249 546.108 102.805 588.399 196.921 589.274C299.46 590.227 381.678 523.082 400.528 558.554C412.856 581.745 388.131 630.554 333.621 722.05C166.807 1002.08 92.266 1054.87 114.822 1130.95C148.062 1243.07 342.738 1199.77 445.401 1347.18C447.698 1350.49 449.998 1353.81 452.174 1357.21C521.432 1466.45 501.299 1614.72 472.987 1722.91" stroke="#00B7CE" stroke-width="1.27264" stroke-miterlimit="10"/>
<path d="M-278.682 372.576C-60.8754 528.355 102.378 577.37 193.3 583.967C290.054 590.983 367.365 527.629 384.058 563.761C395.044 587.544 370.751 635.355 318.415 723.23C157.817 992.922 82.9456 1047.49 106.258 1122.47C141.073 1234.42 343.989 1183.19 451.907 1329.66C454.36 1332.99 456.82 1336.32 459.129 1339.76C532.321 1449.11 512.61 1603.35 484.521 1715.37" stroke="#00B7CE" stroke-width="1.27264" stroke-miterlimit="10"/>
<path d="M-270.75 360.404C-59.2182 510.591 101.516 566.217 189.674 578.642C280.375 591.424 353.048 532.206 367.577 568.955C377.22 593.339 353.352 640.153 303.203 724.394C148.82 983.745 73.6309 1040.09 97.6901 1113.97C134.101 1225.78 345.282 1166.58 458.415 1312.13C461.023 1315.49 463.632 1318.82 466.078 1322.29C543.179 1431.75 523.902 1591.94 496.051 1707.8" stroke="#00B7CE" stroke-width="1.27264" stroke-miterlimit="10"/>
<path d="M-262.82 348.228C-57.5645 492.83 104.092 538.42 186.052 573.326C271.173 574.644 338.711 536.789 351.103 574.155C359.39 599.147 335.981 644.944 287.976 725.58C139.806 974.586 64.3168 1032.7 89.1053 1105.49C127.131 1217.14 346.607 1149.96 464.909 1294.61C467.658 1297.98 470.427 1301.33 473.023 1304.85C554.008 1414.45 535.215 1580.57 507.579 1700.27" stroke="#00B7CE" stroke-width="1.27264" stroke-miterlimit="10"/>
<path d="M-254.89 336.052C-55.9091 475.071 104.546 525.005 182.429 568.009C262.102 572.987 324.357 541.381 334.625 579.356C341.551 604.964 318.603 649.733 272.782 726.743C130.816 965.389 55.0507 1025.29 80.5563 1096.99C120.216 1208.48 348.007 1133.29 471.437 1277.08C474.337 1280.45 477.258 1283.83 480 1287.38C564.844 1397.13 546.53 1569.15 519.135 1692.7" stroke="#00B7CE" stroke-width="1.27264" stroke-miterlimit="10"/>
<path d="M-246.959 323.877C-54.2547 457.31 104.992 511.592 178.806 562.689C253.034 571.325 309.99 545.982 318.152 584.556C323.705 610.782 301.219 654.532 257.574 727.914C121.82 956.245 45.7875 1017.89 71.996 1088.5C113.31 1199.82 349.426 1116.59 477.957 1259.55C481.003 1262.94 484.074 1266.34 486.965 1269.92C575.651 1379.83 557.845 1557.75 530.678 1685.15" stroke="#00B7CE" stroke-width="1.27264" stroke-miterlimit="10"/>
<path d="M-239.027 311.704C-52.5973 439.555 105.442 498.179 175.18 557.373C243.959 569.67 295.599 550.589 301.672 589.752C305.838 616.604 283.83 659.332 242.375 729.084C112.844 947.064 36.5425 1010.48 63.4347 1080.01C106.426 1191.15 350.882 1099.86 484.476 1242.02C487.677 1245.42 490.89 1248.84 493.929 1252.45C586.443 1362.54 569.159 1546.35 542.223 1677.59" stroke="#00B7CE" stroke-width="1.27264" stroke-miterlimit="10"/>
<path d="M-231.094 299.526C-50.9515 421.787 105.897 484.774 171.546 552.067C234.876 568.024 281.187 555.204 285.179 594.957C287.944 622.433 266.432 664.132 227.137 730.265C103.821 937.905 27.2784 1003.08 54.8482 1071.54C99.5348 1182.5 352.324 1083.13 490.963 1224.51C494.317 1227.93 497.67 1231.35 500.852 1235.01C597.18 1345.29 580.435 1534.97 553.728 1670.05" stroke="#00B7CE" stroke-width="1.27264" stroke-miterlimit="10"/>
<path d="M-223.164 287.351C-49.2954 404.029 106.34 471.347 167.935 546.739C225.817 566.356 266.774 559.796 268.721 600.153C270.074 628.249 249.061 668.924 211.942 731.434C94.8484 928.747 18.0687 995.665 46.2924 1063.04C92.7014 1173.81 353.836 1066.33 497.49 1206.97C500.994 1210.4 504.499 1213.86 507.843 1217.55C607.959 1328.04 591.786 1523.57 565.293 1662.5" stroke="#00B7CE" stroke-width="1.27264" stroke-miterlimit="10"/>
<path d="M-215.228 275.187C-47.6418 386.268 106.785 457.934 164.306 541.426C216.738 564.701 252.337 564.392 252.243 605.355C252.176 634.072 231.679 673.721 196.736 732.609C85.8455 919.568 8.84636 988.25 37.7245 1054.55C85.8771 1165.13 355.362 1049.5 504 1189.44C507.659 1192.89 511.311 1196.37 514.797 1200.09C618.71 1310.79 603.076 1512.17 576.838 1654.96" stroke="#00B7CE" stroke-width="1.27264" stroke-miterlimit="10"/>
<path d="M-207.302 263.004C-45.9883 368.507 107.236 444.522 160.687 536.108C207.67 563.042 237.893 568.982 235.759 610.56C234.261 639.888 214.29 678.522 181.509 733.771C76.8336 910.389 -0.360529 980.807 29.1449 1046.05C79.0595 1156.42 356.851 1032.66 510.5 1171.91C514.309 1175.36 518.105 1178.87 521.74 1182.61C629.438 1293.56 614.368 1500.76 588.352 1647.37" stroke="#00B7CE" stroke-width="1.27264" stroke-miterlimit="10"/>
<path d="M-199.371 250.828C-44.3339 350.746 107.686 431.106 157.064 530.788C198.6 561.386 223.434 573.562 219.292 615.756C216.353 645.692 196.91 683.314 166.316 734.959C67.8562 901.23 -9.53291 973.384 20.5951 1037.57C72.2954 1147.72 358.413 1015.8 517.011 1154.4C520.974 1157.87 524.913 1161.4 528.706 1165.2C640.185 1276.36 625.695 1489.37 599.92 1639.82" stroke="#00B7CE" stroke-width="1.27264" stroke-miterlimit="10"/>
<path d="M-191.442 238.653C-42.6826 332.989 108.12 417.698 153.44 525.471C189.526 559.702 208.96 578.134 202.814 620.958C198.427 651.49 179.527 688.111 151.117 736.124C58.8721 892.054 -18.6985 965.936 12.0432 1029.07C65.5531 1138.99 359.973 998.893 523.553 1136.86C527.672 1140.33 531.752 1143.9 535.685 1147.7C650.909 1259.16 637.007 1477.99 611.444 1632.28" stroke="#00B7CE" stroke-width="1.27264" stroke-miterlimit="10"/>
<path d="M-183.497 226.47C-41.0145 315.22 108.593 404.269 149.827 520.145C180.468 558.059 194.5 582.686 186.35 626.142C180.53 657.264 162.158 692.896 135.908 737.291C49.881 882.878 -27.8642 958.484 3.47415 1020.58C58.8059 1130.26 361.516 981.978 530.045 1119.34C534.319 1122.82 538.541 1126.42 542.624 1130.25C661.627 1241.98 648.305 1466.58 622.967 1624.73" stroke="#00B7CE" stroke-width="1.27264" stroke-miterlimit="10"/>
<path d="M-175.569 214.299C-39.3885 297.473 65.5433 413.332 146.193 514.838C176.372 552.822 180.005 587.25 169.861 631.354C162.584 663.064 144.761 697.706 120.686 738.478C40.8655 873.724 -37.0325 951.038 -5.10567 1012.1C52.0928 1121.5 363.08 965.031 536.567 1101.81C540.989 1105.3 545.361 1108.93 549.591 1112.79C672.35 1224.8 659.612 1455.17 634.524 1617.17" stroke="#00B7CE" stroke-width="1.27264" stroke-miterlimit="10"/>
<path d="M-167.642 202.125C-37.7081 279.711 98.4917 380.271 142.578 509.518C158.479 556.144 165.526 591.788 153.39 636.552C144.652 668.842 127.384 702.496 105.482 739.647C31.8779 864.556 -46.1701 943.566 -13.6629 1003.61C45.407 1112.72 364.652 948.057 543.084 1084.28C547.664 1087.78 552.167 1091.45 556.555 1095.33C682.866 1207.88 670.929 1443.79 646.069 1609.63" stroke="#00B7CE" stroke-width="1.27264" stroke-miterlimit="10"/>
<path d="M-159.715 189.951C-36.062 261.943 104.263 365.069 138.952 504.202C151.254 553.556 151.033 596.322 136.913 641.752C126.71 674.616 109.995 707.295 90.2706 740.819C22.8778 855.388 -55.5462 936.226 -22.2342 995.121C39.1712 1103.68 366.384 930.804 549.593 1066.76C554.332 1070.25 558.971 1073.96 563.509 1077.87C693.678 1190.62 682.24 1432.39 657.605 1602.06" stroke="#00B7CE" stroke-width="1.27264" stroke-miterlimit="10"/>
<path d="M-151.788 177.778C-34.4147 244.186 110.367 350.623 135.321 498.886C172.93 722.401 -87.3997 889.007 -30.7995 986.637C33.7209 1097.93 385.396 904.457 570.467 1060.41C704.486 1173.35 693.555 1421.01 669.138 1594.51" stroke="#00B7CE" stroke-width="1.27264" stroke-miterlimit="10"/>
</g>
</svg>
