<svg viewBox="0 0 1920 829" fill="none" xmlns="http://www.w3.org/2000/svg">
<g clip-path="url(#clip0_807_634)">
<g opacity="0.2">
<path d="M821.25 576.893C824.146 552.614 830.643 524.768 840.54 494.129C850.881 462.566 863.113 431.833 877.149 402.144C891.759 370.983 908.07 340.876 925.988 311.999C942.778 284.62 961.427 258.756 981.767 234.641C1000.41 212.724 1018.11 196.212 1034.15 185.56C1049.59 175.271 1062.91 170.888 1073.71 172.477C1084.51 174.067 1092.22 181.562 1096.66 194.849C1101.25 208.477 1102.11 227.805 1099.22 252.084C1096.32 276.364 1089.82 304.322 1079.93 334.848C1069.59 366.416 1057.35 397.149 1043.3 426.833C1028.72 458.005 1012.43 488.12 994.52 517.001C977.724 544.374 959.075 570.238 938.741 594.359C919.974 616.276 902.333 632.788 886.322 643.44C870.853 653.729 857.537 658.112 846.755 656.522C835.974 654.933 828.25 647.437 823.804 634.151C819.198 620.523 818.353 601.195 821.25 576.916V576.893ZM819.701 578.71C807.632 679.144 860.896 687.048 938.5 596.335C1016.1 505.622 1088.76 350.724 1100.75 250.29C1112.74 149.856 1059.57 141.952 982.069 232.665C904.566 323.378 831.81 478.276 819.801 578.71H819.701Z" stroke="#00B7CE" stroke-width="0.473925"/>
<path d="M807.813 574.145C813.204 547.503 822.457 517.364 835.33 484.817C848.618 451.461 863.768 419.091 880.69 387.904C898.043 355.648 917.085 324.59 937.715 294.897C956.687 267.227 977.535 241.264 1000.07 217.243C1020.65 195.689 1039.56 179.995 1056.27 170.615C1072.36 161.53 1085.84 158.691 1096.16 162.143C1106.48 165.595 1113.22 175.18 1116.13 190.624C1119.15 206.523 1117.95 228.236 1112.55 254.855C1107.16 281.474 1097.91 311.636 1085.04 344.182C1071.75 377.543 1056.59 409.913 1039.66 441.096C1022.31 473.351 1003.28 504.409 982.652 534.103C963.636 561.772 942.748 587.735 920.175 611.756C899.598 633.31 880.69 649.005 863.994 658.385C847.902 667.47 834.425 670.309 824.106 666.856C813.787 663.404 807.049 653.82 804.132 638.375C801.115 622.477 802.302 600.764 807.713 574.145H807.813ZM806.023 575.916C783.715 686.048 834.626 703.105 919.733 613.937C1004.84 524.768 1091.94 363.238 1114.24 253.083C1136.55 142.929 1085.64 125.894 1000.51 215.063C915.388 304.231 828.33 465.762 806.023 575.916Z" stroke="#00B7CE" stroke-width="0.473925"/>
<path d="M795.02 568.966C804.606 536.039 816.721 504.121 831.227 473.575C847.599 438.677 865.808 404.919 885.758 372.482C905.878 339.431 927.686 307.731 951.072 277.545C972.263 249.914 995.338 224.201 1020.09 200.641C1042.39 179.768 1062.45 165.209 1079.69 157.306C1096.36 149.674 1109.72 148.584 1119.41 154.035C1129.11 159.486 1134.62 171.205 1135.83 188.876C1137.07 207.182 1133.61 231.098 1125.55 259.965C1115.97 292.895 1103.85 324.815 1089.34 355.357C1073.05 390.238 1054.91 423.981 1035.03 456.404C1014.91 489.45 993.097 521.149 969.718 551.342C948.527 578.972 925.452 604.685 900.704 628.245C878.396 649.118 858.342 663.677 841.083 671.581C824.428 679.212 811.072 680.302 801.376 674.851C791.681 669.4 786.169 657.681 784.962 640.01C783.715 621.704 787.175 597.788 795.241 568.921L795.02 568.966ZM793.411 570.624C760.04 690.023 807.793 716.869 900.02 630.63C992.247 544.392 1093.91 377.706 1127.28 258.33C1160.65 138.954 1112.9 112.085 1020.67 198.324C928.442 284.563 826.54 451.294 793.23 570.67L793.411 570.624Z" stroke="#00B7CE" stroke-width="0.473925"/>
<path d="M783.172 561.221C795.852 526.307 811.022 492.612 828.532 460.47C867.53 388.217 913.564 321.116 965.776 260.419C989.041 233.144 1014.21 208.027 1041.05 185.31C1064.96 165.505 1086.02 152.332 1103.64 146.199C1120.68 140.271 1133.82 141.112 1142.65 148.698C1151.48 156.283 1155.62 170.206 1154.92 190.102C1154.21 210.702 1148.32 236.844 1137.42 267.778C1124.74 302.693 1109.57 336.388 1092.06 368.53C1072.64 404.645 1051.4 439.468 1028.43 472.825C1005.54 506.309 980.957 538.28 954.813 568.58C931.541 595.856 906.363 620.974 879.523 643.69C855.626 663.495 834.566 676.668 816.925 682.8C799.908 688.728 786.753 687.888 777.942 680.302C769.132 672.716 764.968 658.793 765.652 638.897C766.376 618.297 772.27 592.156 783.172 561.221V561.221ZM781.161 562.834C736.063 690.818 779.672 728.157 878.578 646.234C977.483 564.31 1094.21 394.127 1139.31 266.166C1184.4 138.204 1140.8 100.843 1041.89 182.766C942.986 264.689 826.259 434.85 781.161 562.834V562.834Z" stroke="#00B7CE" stroke-width="0.473925"/>
<path d="M772.35 550.728C788.218 514.101 806.535 478.894 827.143 445.411C849.679 408.399 874.037 372.844 900.1 338.913C925.702 305.36 953.004 273.51 981.867 243.521C1010.39 213.995 1037.71 189.784 1063.07 171.387C1088.44 152.99 1110.32 141.566 1128.12 137.455C1145.32 133.48 1157.99 136.433 1165.8 146.245C1173.6 156.056 1176.16 172.25 1173.38 194.327C1170.49 217.198 1162 245.429 1148.1 278.362C1132.25 314.998 1113.93 350.207 1093.3 383.679C1070.78 420.696 1046.43 456.252 1020.37 490.177C994.766 523.73 967.464 555.581 938.6 585.569C910.077 615.095 882.761 639.306 857.396 657.703C832.031 676.1 810.146 687.525 792.345 691.636C775.146 695.61 762.474 692.658 754.669 682.846C746.865 673.034 744.31 656.84 747.086 634.764C749.962 611.893 758.471 583.661 772.35 550.728V550.728ZM770.339 552.25C712.911 688.002 751.411 736.379 856.31 660.315C961.209 584.252 1092.76 412.501 1150.19 276.75C1207.62 140.998 1169.12 92.6208 1064.22 168.684C959.319 244.748 827.707 416.498 770.278 552.25H770.339Z" stroke="#00B7CE" stroke-width="0.473925"/>
<path d="M763.057 537.396C782.167 499.333 803.714 462.896 827.526 428.377C853.153 390.862 880.613 354.99 909.776 320.925C937.98 287.696 967.896 256.374 999.368 227.123C1030.24 198.665 1059.41 175.816 1086.02 159.213C1112.63 142.611 1135.18 133.344 1152.93 131.482C1170.06 129.71 1182.09 134.979 1188.65 147.13C1195.21 159.281 1195.97 177.724 1190.94 201.913C1185.71 226.896 1174.45 257.149 1157.47 291.603C1138.35 329.662 1116.81 366.098 1093 400.623C1067.36 438.126 1039.9 473.999 1010.75 508.075C982.527 541.312 952.584 572.634 921.08 601.877C890.224 630.335 861.057 653.184 834.425 669.786C807.793 686.389 785.305 695.701 767.543 697.564C750.405 699.335 738.376 694.066 731.819 681.915C725.261 669.764 724.477 651.321 729.526 627.133C734.756 602.149 746.02 571.896 762.997 537.442L763.057 537.396ZM760.805 538.804C690.644 681.37 722.828 741.171 833.037 672.557C943.247 603.943 1089.4 432.783 1159.64 290.241C1229.88 147.698 1197.54 87.8285 1087.43 156.442C977.322 225.056 831.066 396.216 760.805 538.759V538.804Z" stroke="#00B7CE" stroke-width="0.473925"/>
<path d="M755.313 521.043C777.693 481.912 802.503 444.623 829.557 409.458C858.237 371.848 888.759 336.081 920.98 302.324C951.696 269.884 984.142 239.598 1018.13 211.633C1051.2 184.651 1081.98 163.688 1109.66 149.311C1137.34 134.934 1160.21 127.984 1177.69 128.665C1194.56 129.347 1205.69 137.069 1210.8 151.65C1215.9 166.231 1214.7 186.877 1207.22 213.087C1199.49 240.342 1185.33 272.139 1165.15 307.956C1142.78 347.086 1117.98 384.375 1090.93 419.542C1062.26 457.157 1031.75 492.925 999.528 526.676C968.809 559.121 936.357 589.408 902.353 617.366C869.304 644.348 838.508 665.312 810.85 679.689C783.192 694.066 760.302 701.016 742.822 700.334C725.945 699.653 714.802 691.931 709.712 677.349C704.623 662.768 705.81 642.123 713.293 615.913C721.017 588.771 735.178 556.861 755.353 521.043H755.313ZM753.08 522.224C669.644 670.309 694.747 742.125 809.201 682.619C923.655 623.112 1083.99 454.86 1167.37 306.775C1250.74 158.691 1225.7 86.8745 1111.25 146.381C996.793 205.887 836.477 374.14 753 522.224H753.08Z" stroke="#00B7CE" stroke-width="0.473925"/>
<path d="M749.54 501.647C775.198 461.821 803.294 424.072 833.62 388.676C865.248 351.436 898.734 316.265 933.913 283.336C966.955 252.138 1001.74 223.37 1038.05 197.211C1073.07 172.227 1105.25 153.626 1133.69 141.861C1162.14 130.096 1185.15 125.962 1202.09 129.369C1218.44 132.708 1228.46 142.997 1231.88 160.099C1235.3 177.201 1231.88 200.004 1221.82 228.077C1211.42 257.149 1194.28 290.558 1170.87 327.352C1145.24 367.168 1117.19 404.917 1086.91 440.323C1055.27 477.558 1021.79 512.728 986.615 545.663C953.573 576.862 918.79 605.629 882.48 631.788C847.459 656.772 815.276 675.373 786.833 687.138C758.391 698.903 735.379 703.037 718.442 699.63C702.089 696.291 692.051 686.003 688.632 668.9C685.212 651.798 688.632 628.995 698.689 600.922C709.089 571.85 726.227 538.441 749.641 501.647H749.54ZM747.307 502.601C650.454 654.773 667.31 738.809 784.942 690.159C902.574 641.509 1076.49 478.639 1173.36 326.399C1270.24 174.158 1253.36 90.1904 1135.71 138.84C1018.05 187.49 844.08 350.36 747.207 502.601H747.307Z" stroke="#00B7CE" stroke-width="0.473925"/>
<path d="M746 479.23C774.879 439.142 806.208 401.385 839.756 366.236C874.199 329.863 910.509 295.812 948.497 264.258C983.656 234.761 1020.56 208.011 1058.95 184.197C1095.66 161.78 1128.95 145.995 1157.87 137.273C1186.8 128.552 1209.61 127.416 1225.7 134.003C1241.25 140.294 1249.84 153.354 1251.43 172.886C1253.02 192.419 1247.26 217.402 1234.53 247.178C1221.34 277.976 1201.12 312.567 1174.43 349.997C1145.55 390.085 1114.22 427.841 1080.67 462.991C1046.22 499.358 1009.91 533.409 971.931 564.969C936.811 594.382 899.956 621.055 861.621 644.803C824.891 667.22 791.621 683.005 762.695 691.726C733.77 700.448 710.759 701.584 694.667 695.11C679.118 688.819 670.529 675.76 668.919 656.227C667.31 636.694 673.103 611.711 685.836 581.935C699.092 551.137 719.307 516.546 746 479.23ZM743.626 479.934C633.256 634.741 640.779 730.996 760.402 694.929C880.026 658.862 1066.47 504.145 1176.78 349.293C1287.09 194.44 1279.63 98.2307 1160.01 134.298C1040.38 170.365 853.916 325.081 743.626 479.934V479.934Z" stroke="#00B7CE" stroke-width="0.473925"/>
<path d="M744.954 453.429C776.978 413.547 811.468 376.281 848.164 341.911C885.239 306.919 924.203 274.56 964.83 245.02C1001.81 217.789 1040.53 193.693 1080.67 172.931C1118.77 153.603 1152.82 141.134 1181.89 135.888C1210.96 130.641 1233.28 132.89 1248.27 142.701C1262.75 152.104 1269.79 168.026 1269.21 190.056C1268.63 212.087 1260.46 239.047 1244.89 270.276C1228.8 302.596 1205.47 338.05 1175.53 375.662C1143.52 415.543 1109.03 452.809 1072.34 487.179C1035.27 522.165 996.302 554.524 955.678 584.07C918.664 611.306 879.91 635.402 839.735 656.159C801.638 675.487 767.583 687.956 738.517 693.203C709.451 698.449 687.103 696.201 672.138 686.389C657.675 676.986 650.635 661.065 651.218 639.034C651.802 617.003 660.008 590.043 675.557 558.723C691.649 526.403 715.003 490.949 744.914 453.338L744.954 453.429ZM742.54 453.769C618.773 609.349 615.816 717.845 736.123 696.11C856.431 674.374 1054.16 530.628 1177.93 375.048C1301.7 219.469 1304.65 110.972 1184.34 132.708C1064.04 154.444 866.307 298.281 742.54 453.86V453.769Z" stroke="#00B7CE" stroke-width="0.473925"/>
<path d="M746.603 424.72C781.617 385.541 819.124 349.308 858.825 316.315C898.26 283.254 939.585 253.171 982.532 226.26C1021.12 201.755 1061.41 180.837 1103 163.71C1142.12 148.039 1176.58 139.408 1205.43 138.045C1234.27 136.683 1255.71 142.588 1269.31 155.829C1282.41 168.548 1287.57 187.399 1284.68 211.861C1281.78 236.322 1270.96 265.144 1252.49 297.554C1233.41 331.123 1206.93 367.054 1173.84 404.302C1138.82 443.471 1101.32 479.703 1061.62 512.708C1022.19 545.763 980.86 575.846 937.917 602.762C899.328 627.239 859.039 648.128 817.448 665.221C778.345 680.893 743.888 689.523 715.043 690.886C686.198 692.249 664.756 686.344 651.158 673.102C638.063 660.383 632.894 641.532 635.79 617.071C638.687 592.61 649.509 563.788 667.974 531.378C687.063 497.809 713.514 461.878 746.624 424.63L746.603 424.72ZM744.25 424.63C607.328 579.164 593.046 699.676 712.348 694.02C831.649 688.365 1039.32 558.723 1176.24 404.279C1313.16 249.836 1327.42 129.46 1208.12 135.002C1088.82 140.544 881.132 270.277 744.23 424.72L744.25 424.63Z" stroke="#00B7CE" stroke-width="0.473925"/>
<path d="M751.27 392.764C789.107 354.83 829.454 320.214 871.96 289.219C913.499 258.667 956.917 231.502 1001.88 207.931C1045.67 185.083 1087.33 167.912 1125.71 156.897C1165.42 145.54 1199.87 141.157 1228.07 144.11C1256.28 147.062 1276.57 157.033 1288.42 173.817C1299.82 190.011 1302.86 211.838 1297.45 238.661C1292.04 265.484 1278.46 295.987 1257.1 329.283C1234.97 363.738 1205.42 399.691 1169.26 436.235C1131.43 474.175 1091.08 508.791 1048.57 539.781C1007.04 570.337 963.627 597.502 918.666 621.068C874.876 643.917 833.218 661.088 794.839 672.103C755.112 683.459 720.675 687.843 692.454 684.89C664.233 681.937 643.977 671.967 632.109 655.182C620.724 638.988 617.687 617.162 623.098 590.339C628.509 563.515 642.086 533.013 663.448 499.716C685.575 465.262 715.123 429.308 751.27 392.764V392.764ZM748.977 392.514C599.402 543.506 572.75 675.76 689.437 687.888C806.123 700.016 1021.94 587.477 1171.49 436.485C1321.05 285.494 1347.72 153.24 1231.03 141.225C1114.34 129.21 898.511 241.523 748.977 392.514Z" stroke="#00B7CE" stroke-width="0.473925"/>
<path d="M759.195 357.946C838.77 287.088 927.611 230.618 1022.54 190.556C1067.56 171.864 1109.92 159.145 1148.42 152.786C1188.29 146.199 1222.26 146.721 1249.4 154.353C1276.53 161.984 1295.22 176.27 1304.93 196.802C1314.29 216.653 1314.99 241.455 1306.84 270.526C1298.7 299.598 1282.3 331.532 1257.99 365.35C1232.82 400.373 1200.26 435.917 1161.19 471.053C1120.81 507.174 1077.9 539.531 1032.88 567.808C989.565 595.301 944.41 618.918 897.828 638.443C852.79 657.135 810.448 669.854 771.928 676.214C732.08 682.8 698.106 682.278 670.951 674.647C643.796 667.015 625.149 652.729 615.434 632.197C606.06 612.347 605.376 587.545 613.523 558.473C621.67 529.401 638.103 497.4 662.483 463.649C687.647 428.627 720.213 393.082 759.256 357.946H759.195ZM757.043 357.333C595.52 502.692 555.592 645.938 667.853 677.576C780.115 709.215 1002.04 616.98 1163.55 471.712C1325.05 326.444 1364.98 183.107 1252.74 151.468C1140.49 119.83 918.486 212.065 757.023 357.333H757.043Z" stroke="#00B7CE" stroke-width="0.473925"/>
<path d="M770.6 320.357C813.29 286.578 858.521 257.091 905.773 232.233C950.455 208.425 996.896 189.076 1044.57 174.408C1090.35 160.508 1132.91 152.877 1171.05 151.696C1210.53 150.515 1243.46 156.238 1269.15 169.048C1294.84 181.858 1311.39 200.573 1318.67 224.988C1325.69 248.564 1323.7 276.318 1312.74 307.502C1301.78 338.686 1282.4 371.71 1255.17 405.687C1227.01 440.846 1191.53 475.46 1149.81 508.597C1107.11 542.366 1061.88 571.854 1014.63 596.721C969.951 620.526 923.51 639.875 875.842 654.546C830.06 668.446 787.497 676.078 749.359 677.259C709.853 678.44 676.945 672.603 651.258 659.907C625.572 647.21 609.017 628.382 601.715 603.966C594.695 580.391 596.707 552.636 607.75 521.452C618.793 490.268 638.063 457.244 665.319 423.267C693.48 388.108 728.962 353.495 770.681 320.357H770.6ZM768.669 319.313C596.144 456.336 542.115 610.03 647.98 662.609C753.845 715.188 979.574 646.711 1152.1 509.687C1324.63 372.664 1378.65 218.969 1272.79 166.39C1166.92 113.811 941.195 182.289 768.649 319.313H768.669Z" stroke="#00B7CE" stroke-width="0.473925"/>
<path d="M785.666 280.179C830.309 249.381 877.458 223.477 926.471 202.821C972.186 183.24 1019.5 168.786 1067.72 159.668C1113.74 151.264 1155.96 149.334 1193.19 153.944C1231.74 158.85 1263.3 170.456 1286.85 188.512C1310.4 206.569 1324.65 230.212 1329.09 258.534C1333.44 285.789 1328.55 316.564 1314.59 349.656C1300.63 382.748 1278.38 416.567 1248.21 450.249C1217.05 485.09 1178.89 518.227 1134.8 548.73C1090.16 579.527 1043.01 605.432 993.997 626.088C948.278 645.627 900.968 660.043 852.75 669.128C806.727 677.531 764.506 679.462 727.253 674.851C688.632 670.15 657.172 658.657 633.598 640.487C610.023 622.318 595.822 598.788 591.356 570.465C587.031 543.211 591.899 512.435 605.879 479.344C619.859 446.252 642.187 412.433 672.258 378.751C703.437 343.91 741.595 310.773 785.687 280.27L785.666 280.179ZM783.675 278.794C601.333 404.847 532.5 567.808 629.977 642.895C727.454 717.982 954.35 676.441 1136.73 550.297C1319.11 424.153 1387.95 261.192 1290.47 186.105C1192.99 111.018 966.218 152.559 783.735 278.703L783.675 278.794Z" stroke="#00B7CE" stroke-width="0.473925"/>
<path d="M804.575 237.73C850.832 210.477 899.522 188.847 949.825 173.204C996.142 158.531 1043.77 149.762 1091.82 147.062C1137.5 144.791 1178.77 149.174 1214.52 160.099C1251.53 171.455 1280.9 189.193 1301.98 213.064C1323.06 236.935 1334.34 265.302 1335.71 297.713C1337.04 328.897 1329.03 362.329 1311.93 397.079C1294.84 431.829 1269.53 466.102 1236.68 498.989C1202.67 533.058 1162.02 564.083 1115.99 591.27C1069.74 618.522 1021.05 640.152 970.744 655.795C924.427 670.468 876.799 679.237 828.753 681.937C783.072 684.208 741.776 679.825 706.052 668.9C669.04 657.544 639.673 639.806 618.612 615.935C597.552 592.065 586.046 563.583 584.759 531.286C583.431 500.102 591.437 466.67 608.515 431.92C625.592 397.17 650.937 362.897 683.785 330.01C717.799 295.941 758.431 264.916 804.575 237.73V237.73ZM802.845 235.754C612.015 348.248 527.713 519.453 614.71 618.161C701.707 716.869 926.793 705.717 1117.58 593.177C1308.37 480.638 1392.65 309.546 1305.76 210.838C1218.86 112.13 993.675 123.282 802.885 235.822L802.845 235.754Z" stroke="#00B7CE" stroke-width="0.473925"/>
<path d="M827.425 193.282C874.896 170.194 924.636 153.58 975.592 143.792C1022.11 134.589 1069.48 132.17 1116.54 136.592C1161.21 141.134 1201.02 152.49 1234.57 170.093C1269.37 188.399 1296.12 212.837 1314.05 242.772C1331.8 271.941 1340.22 307.068 1337.92 342.365C1335.91 377.365 1324.59 413.41 1304.29 449.499C1283.99 485.589 1255.71 519.908 1220.25 551.523C1183.56 584.252 1140.72 612.597 1092.96 635.786C1045.49 658.871 995.751 675.485 944.796 685.276C898.281 694.478 850.911 696.898 803.85 692.476C759.155 687.933 719.368 676.577 685.816 658.975C650.997 640.669 624.264 616.231 606.342 586.296C588.594 557.126 580.186 521.995 582.506 486.702C584.517 451.703 595.842 415.635 616.218 379.568C636.595 343.501 664.796 309.16 700.238 277.544C739.195 243.309 781.954 214.98 827.425 193.282V193.282ZM825.997 190.783C628.408 286.766 528.316 464.671 602.46 588.249C676.603 711.827 896.862 734.153 1094.47 638.216C1292.08 542.279 1392.17 364.374 1318.01 240.751C1243.84 117.127 1023.59 94.892 825.997 190.783Z" stroke="#00B7CE" stroke-width="0.473925"/>
<path d="M854.46 147.267C902.741 128.922 953.005 118.065 1003.87 114.993C1050.19 111.922 1096.64 116.559 1141.76 128.756C1184.77 140.726 1222.22 159.418 1253.08 184.356C1285.02 210.157 1308.45 241.546 1322.74 277.613C1337 313.585 1341.42 353.55 1335.43 392.378C1329.78 431.103 1314.95 469.6 1291.36 506.667C1267.76 543.733 1236.64 577.688 1198.83 607.441C1157.94 639.221 1113.23 664.238 1066.07 681.733C1017.79 700.078 967.524 710.936 916.655 714.007C870.337 717.077 823.87 712.44 778.747 700.244C735.741 688.274 698.287 669.582 667.451 644.644C635.448 618.843 611.994 587.454 597.713 551.387C583.446 515.415 579.033 475.448 585.04 436.622C590.692 397.897 605.517 359.4 629.092 322.333C652.667 285.267 683.825 251.312 721.621 221.559C762.511 189.776 807.216 164.759 854.379 147.267H854.46ZM853.192 144.314C650.856 220.741 534.632 403.689 593.71 552.909C652.787 702.129 864.758 761.136 1067.18 684.64C1269.59 608.145 1385.84 425.266 1326.76 276.046C1267.68 126.826 1055.71 67.8192 853.273 144.314H853.192Z" stroke="#00B7CE" stroke-width="0.473925"/>
<path d="M885.577 100.116C934.305 87.1503 984.519 82.7983 1034.43 87.2153C1080.17 91.0604 1125.04 103.456 1167.19 123.896C1207.76 143.883 1242.24 170.547 1269.61 203.116C1297.16 235.283 1317.06 274.793 1327.46 317.973C1337.55 360.534 1337.62 405.331 1327.66 447.932C1318.07 490.245 1299.5 530.832 1272.69 568.58C1245.88 606.328 1211.94 639.329 1171.97 666.652C1129.47 695.456 1083.21 716.49 1034.89 728.975C986.163 741.94 935.949 746.292 886.04 741.875C840.294 738.03 795.431 725.635 753.281 705.195C712.71 685.208 678.233 658.544 650.856 625.974C622.554 592.178 603.063 553.545 592.986 511.027C582.911 468.464 582.842 423.67 592.784 381.067C602.399 338.754 620.945 298.167 647.758 260.42C674.572 222.672 708.526 189.761 748.494 162.439C790.991 133.631 837.258 112.596 885.577 100.116V100.116ZM884.753 96.6409C679.681 150.583 547.244 336.619 588.922 512.186C630.6 687.752 830.643 786.301 1035.72 732.359C1240.79 678.417 1373.22 492.38 1331.55 316.723C1289.87 141.066 1089.82 42.6992 884.753 96.6409V96.6409Z" stroke="#00B7CE" stroke-width="0.473925"/>
<path d="M920.859 52.352C969.645 45.4217 1019.13 48.3442 1067.01 60.9826C1111.74 72.6204 1154.21 93.404 1192.31 122.306C1228.66 149.712 1259.71 185.153 1283.59 226.487C1307.38 267.76 1322.5 314.621 1327.8 363.496C1333.11 412.371 1328.46 461.969 1314.21 508.506C1299.9 555.144 1277.36 598.02 1247.95 634.537C1217.2 673.022 1180.46 704.815 1139.55 728.339C1051.25 779.115 949.945 793.162 853.394 768.017C808.67 756.38 766.212 735.596 728.118 706.694C691.769 679.288 660.716 643.847 636.836 602.512C613.041 561.245 597.909 514.387 592.592 465.512C587.276 416.636 591.917 367.036 606.161 320.494C620.506 273.844 643.088 230.968 672.54 194.463C703.292 155.978 740.033 124.185 780.94 100.661C824.695 75.3178 872.093 58.9603 920.919 52.352H920.859ZM920.477 48.3546C715.305 76.7904 566.655 263.804 588.581 466.034C610.506 668.265 794.799 809.104 1000.05 780.645C1205.3 752.187 1353.87 565.196 1331.95 362.966C1310.02 160.735 1125.67 19.8961 920.417 48.3546H920.477Z" stroke="#00B7CE" stroke-width="0.473925"/>
<path d="M960.184 4.54246C1043.95 4.60247 1125.12 37.3536 1189.94 97.2481C1254.77 157.142 1299.27 240.498 1315.9 333.194C1332.53 425.89 1320.27 522.227 1281.2 605.887C1242.13 689.547 1178.65 755.386 1101.51 792.251C1012.93 833.672 913.431 833.86 824.725 792.773C736.019 751.686 665.302 672.659 627.998 572.929C590.694 473.199 589.831 360.859 625.597 260.413C661.363 159.968 730.855 79.567 818.916 36.7485C863.608 15.396 911.656 4.44217 960.184 4.54246V4.54246ZM960.184 0C887.578 0 816.604 24.31 756.235 69.8558C695.866 115.402 648.814 180.138 621.03 255.878C593.245 331.618 585.975 414.96 600.14 495.365C614.304 575.77 649.267 649.627 700.606 707.596C751.946 765.564 817.356 805.042 888.566 821.035C959.776 837.029 1033.59 828.82 1100.67 797.448C1167.74 766.075 1225.08 712.948 1265.41 644.784C1305.75 576.62 1327.28 496.48 1327.28 414.5C1327.28 360.067 1317.79 306.167 1299.34 255.878C1280.89 205.588 1253.85 159.894 1219.76 121.404C1185.67 82.9143 1145.2 52.3825 1100.67 31.5519C1056.13 10.7214 1008.39 0 960.184 0V0Z" stroke="#00B7CE" stroke-width="0.473925"/>
</g>
</g>
</svg>
