<svg width="1920" height="874" viewBox="0 0 1920 874" fill="none" xmlns="http://www.w3.org/2000/svg">
<g opacity="0.2">
<path d="M-6.38618 -2.0978C67.5832 41.519 133.076 98.1244 186.944 164.998C313.803 323.924 296.508 449.961 369.299 469.678C481.78 500.135 554.412 207.536 790.897 161.298C964.347 127.363 1140.84 242.666 1181.69 269.381C1341.07 373.48 1362.2 488.816 1476.47 491.883C1560.06 494.215 1584.75 433.52 1715.47 407.812C1806.47 389.918 1886.12 401.287 1939.8 413.919" stroke="#00B7CE" stroke-width="1.53134" stroke-miterlimit="10"/>
<path d="M-6.31255 11.6848C67.6636 55.3161 133.166 111.93 187.05 178.808C313.91 337.763 296.614 463.771 369.375 483.49C481.885 513.945 554.517 221.346 790.973 175.11C964.455 141.202 1140.95 256.505 1181.8 283.191C1341.17 387.29 1362.27 502.628 1476.57 505.692C1560.16 508.024 1584.82 447.332 1715.57 421.622C1806.6 403.725 1886.22 415.096 1939.91 427.729" stroke="#00B7CE" stroke-width="1.53134" stroke-miterlimit="10"/>
<path d="M-6.23891 25.4674C67.7441 69.0892 133.248 125.704 187.123 192.59C313.984 351.546 296.687 477.553 369.478 497.271C481.871 527.735 554.62 235.126 791.076 188.89C964.528 154.984 1141.02 270.288 1181.87 296.974C1341.25 401.102 1362.38 516.408 1476.65 519.475C1560.24 521.807 1584.92 461.083 1715.64 435.375C1806.67 417.479 1886.3 428.85 1939.98 441.482" stroke="#00B7CE" stroke-width="1.53134" stroke-miterlimit="10"/>
<path d="M-6.10793 39.2455C67.8612 82.8889 133.354 139.513 187.227 206.4C314.088 365.356 296.791 491.363 369.553 511.083C482.063 541.537 554.695 248.938 791.151 202.703C964.632 168.794 1141.13 284.098 1181.98 310.783C1341.35 414.912 1362.45 530.221 1476.75 533.285C1560.34 535.617 1585 474.896 1715.75 449.185C1806.78 431.288 1886.4 442.659 1940.09 455.292" stroke="#00B7CE" stroke-width="1.53134" stroke-miterlimit="10"/>
<path d="M-6.06443 53.0302C67.9117 96.6615 133.414 153.275 187.298 220.153C314.188 379.106 296.864 505.145 369.653 524.833C482.134 555.29 554.795 262.689 791.251 216.453C964.732 182.545 1141.2 297.851 1182.08 324.534C1341.42 428.665 1362.55 543.971 1476.82 547.038C1560.41 549.37 1585.1 488.646 1715.82 462.938C1806.85 445.041 1886.47 456.442 1940.16 469.045" stroke="#00B7CE" stroke-width="1.53134" stroke-miterlimit="10"/>
<path d="M-5.96069 66.8104C68.0095 110.45 133.51 167.062 187.402 233.933C314.262 392.889 296.968 518.926 369.727 538.616C482.149 569.077 554.869 276.471 791.345 230.116C964.797 196.21 1141.29 311.513 1182.14 338.199C1341.52 442.327 1362.62 557.636 1476.92 560.7C1560.51 563.032 1585.16 502.311 1715.91 476.601C1806.94 458.704 1886.57 470.104 1940.28 482.705" stroke="#00B7CE" stroke-width="1.53134" stroke-miterlimit="10"/>
<path d="M-5.82886 80.6177C68.14 124.264 133.625 180.9 187.479 247.804C314.369 406.757 297.045 532.796 369.834 552.484C482.317 582.971 554.978 290.369 791.434 244.134C964.914 210.196 1141.38 325.502 1182.26 352.185C1341.6 456.316 1362.73 571.622 1477 574.689C1560.59 577.021 1585.28 516.297 1716 490.589C1807.03 472.722 1886.65 484.093 1940.34 496.696" stroke="#00B7CE" stroke-width="1.53134" stroke-miterlimit="10"/>
<path d="M-5.79336 94.2818C68.1896 137.904 133.693 194.518 187.569 261.405C314.427 420.331 297.133 546.368 369.894 566.087C482.405 596.542 555.036 303.943 791.522 257.705C964.971 223.769 1141.47 339.073 1182.32 365.788C1341.69 469.887 1362.79 585.196 1477.09 588.289C1560.68 590.621 1585.37 529.898 1716.09 504.219C1807.09 486.325 1886.71 497.696 1940.43 510.326" stroke="#00B7CE" stroke-width="1.53134" stroke-miterlimit="10"/>
<path d="M-5.71216 108.18C68.274 151.808 133.786 208.421 187.68 275.3C314.538 434.226 297.214 560.265 370.005 579.983C482.427 610.444 555.147 317.838 791.596 271.514C965.075 237.577 1141.54 352.883 1182.42 379.595C1341.76 483.696 1362.9 599.032 1477.17 602.099C1560.76 604.431 1585.45 543.737 1716.16 518.029C1807.19 500.132 1886.82 511.503 1940.5 524.136" stroke="#00B7CE" stroke-width="1.53134" stroke-miterlimit="10"/>
<path d="M-5.55106 121.955C68.4176 165.628 133.903 222.283 187.762 289.2C314.622 448.156 297.326 574.163 370.117 593.881C482.597 624.338 555.229 331.738 791.714 285.501C965.164 251.565 1141.66 366.869 1182.51 393.584C1341.88 497.683 1362.98 613.021 1477.29 616.085C1560.88 618.417 1585.56 557.723 1716.28 532.015C1807.28 514.12 1886.91 525.492 1940.62 538.122" stroke="#00B7CE" stroke-width="1.53134" stroke-miterlimit="10"/>
<path d="M-5.51059 135.683C68.4595 179.323 133.96 235.935 187.852 302.806C314.712 461.761 297.416 587.769 370.177 607.488C482.658 637.945 555.319 345.344 791.775 299.108C965.257 265.2 1141.72 380.506 1182.6 407.189C1341.94 511.29 1363.07 626.626 1477.38 629.69C1560.94 632.025 1585.62 571.331 1716.37 545.62C1807.4 527.723 1887.03 539.095 1940.71 551.727" stroke="#00B7CE" stroke-width="1.53134" stroke-miterlimit="10"/>
<path d="M-5.43533 149.523C68.5408 193.154 134.043 249.768 187.927 316.646C314.787 475.601 297.491 601.609 370.282 621.326C482.763 651.783 555.394 359.184 791.88 312.946C965.332 279.04 1141.83 394.344 1182.67 421.029C1342.05 525.158 1363.15 640.466 1477.45 643.531C1561.04 645.863 1585.73 585.139 1716.45 559.431C1807.45 541.536 1887.07 552.908 1940.78 565.538" stroke="#00B7CE" stroke-width="1.53134" stroke-miterlimit="10"/>
<path d="M-5.27281 163.299C68.6913 206.947 134.191 263.558 188.09 330.422C314.95 489.377 297.653 615.385 370.415 635.104C482.835 665.536 555.548 372.842 791.954 326.729C965.436 292.82 1141.9 408.126 1182.78 434.809C1342.12 538.94 1363.25 654.247 1477.55 657.311C1561.12 659.645 1585.8 598.922 1716.55 573.211C1807.58 555.314 1887.21 566.715 1940.89 579.318" stroke="#00B7CE" stroke-width="1.53134" stroke-miterlimit="10"/>
<path d="M-5.25939 177.086C68.7168 220.717 134.219 277.331 188.103 344.209C314.963 503.164 297.669 629.201 370.458 648.889C482.939 679.346 555.57 386.747 792.056 340.509C965.508 306.603 1142 421.907 1182.82 448.595C1342.2 552.723 1363.3 668.032 1477.6 671.096C1561.19 673.428 1585.87 612.704 1716.59 586.996C1807.59 569.102 1887.22 580.502 1940.93 593.103" stroke="#00B7CE" stroke-width="1.53134" stroke-miterlimit="10"/>
<path d="M-5.15708 190.866C68.813 234.506 134.314 291.118 188.205 357.989C315.066 516.945 297.771 642.982 370.531 662.672C482.982 693.131 555.673 400.527 792.131 354.321C965.612 320.413 1142.08 435.719 1182.96 462.402C1342.3 566.533 1363.43 681.839 1477.73 684.903C1561.29 687.238 1585.98 626.514 1716.73 600.804C1807.76 582.936 1887.38 594.307 1941.07 606.911" stroke="#00B7CE" stroke-width="1.53134" stroke-miterlimit="10"/>
<path d="M-4.99232 204.671C68.9963 248.285 134.501 304.901 188.37 371.794C315.228 530.72 297.934 656.757 370.723 676.444C483.117 706.938 555.831 414.243 792.234 368.101C965.684 334.165 1142.18 449.469 1183.03 476.155C1342.4 580.283 1363.5 695.592 1477.8 698.656C1561.39 700.988 1586.08 640.264 1716.8 614.556C1807.8 596.691 1887.43 608.062 1941.14 620.663" stroke="#00B7CE" stroke-width="1.53134" stroke-miterlimit="10"/>
<path d="M-4.97666 218.487C69.0063 262.109 134.51 318.723 188.386 385.61C315.244 544.536 297.95 670.573 370.711 690.292C483.192 720.749 555.853 428.148 792.309 381.912C965.788 347.974 1142.25 463.28 1183.13 489.993C1342.48 594.094 1363.61 709.43 1477.91 712.494C1561.5 714.826 1586.16 654.135 1716.91 628.424C1807.94 610.527 1887.56 621.898 1941.25 634.531" stroke="#00B7CE" stroke-width="1.53134" stroke-miterlimit="10"/>
<path d="M-4.90669 232.241C69.0763 275.863 134.58 332.477 188.456 399.364C315.314 558.29 298.019 684.327 370.811 704.044C483.262 734.503 555.923 441.902 792.413 395.723C965.863 361.787 1142.36 477.091 1183.21 503.806C1342.58 607.905 1363.68 723.243 1477.98 726.307C1561.57 728.639 1586.26 667.945 1716.98 642.237C1807.98 624.343 1887.61 635.714 1941.32 648.344" stroke="#00B7CE" stroke-width="1.53134" stroke-miterlimit="10"/>
<path d="M-4.7155 246.014C69.2607 289.646 134.763 346.259 188.647 413.137C315.507 572.093 298.211 698.1 370.972 717.82C483.369 748.342 556.112 455.646 792.482 409.447C965.963 375.538 1142.46 490.842 1183.31 517.527C1342.65 621.629 1363.78 736.965 1478.08 740.029C1561.67 742.361 1586.33 681.669 1717.08 655.958C1808.11 638.062 1887.73 649.433 1941.42 662.065" stroke="#00B7CE" stroke-width="1.53134" stroke-miterlimit="10"/>
<path d="M-4.72258 259.89C69.2604 303.512 134.764 360.126 188.64 427.013C315.5 585.968 298.204 711.976 370.995 731.693C483.475 762.15 556.107 469.551 792.592 423.313C966.038 389.318 1142.53 504.622 1183.38 531.308C1342.76 635.436 1363.86 750.745 1478.16 753.809C1561.75 756.141 1586.43 695.418 1717.15 669.709C1808.15 651.815 1887.78 663.186 1941.49 675.816" stroke="#00B7CE" stroke-width="1.53134" stroke-miterlimit="10"/>
<path d="M-4.62848 273.584C69.3477 317.215 134.85 373.829 188.734 440.707C315.594 599.662 298.298 725.67 371.059 745.389C483.54 775.846 556.201 483.245 792.666 437.127C966.148 403.218 1142.64 518.522 1183.49 545.208C1342.84 649.338 1363.97 764.645 1478.27 767.709C1561.86 770.041 1586.51 709.32 1717.26 683.609C1808.29 665.713 1887.92 677.084 1941.6 689.716" stroke="#00B7CE" stroke-width="1.53134" stroke-miterlimit="10"/>
<path d="M-4.43727 287.357C69.5389 330.989 135.041 387.602 188.925 454.48C315.786 613.436 298.491 739.473 371.28 759.16C483.652 789.744 556.395 497.048 792.76 450.79C966.212 416.883 1142.71 532.187 1183.56 558.873C1342.93 663.001 1364.03 778.31 1478.33 781.374C1561.92 783.706 1586.61 722.983 1717.33 697.274C1808.33 679.38 1887.98 690.778 1941.67 703.381" stroke="#00B7CE" stroke-width="1.53134" stroke-miterlimit="10"/>
<path d="M-4.43981 301.291C69.5303 344.93 135.031 401.543 188.923 468.414C315.783 627.369 298.489 753.406 371.248 773.096C483.729 803.553 556.39 510.952 792.846 464.716C966.316 430.661 1142.81 545.964 1183.66 572.65C1343.03 676.778 1364.13 792.087 1478.43 795.151C1562.03 797.483 1586.68 736.762 1717.43 711.052C1808.46 693.155 1888.09 704.555 1941.77 717.159" stroke="#00B7CE" stroke-width="1.53134" stroke-miterlimit="10"/>
<path d="M-4.37664 314.958C69.6031 358.571 135.106 415.176 188.983 482.052C315.844 641.007 298.55 767.044 371.338 786.732C483.821 817.218 556.453 524.619 792.936 478.352C966.388 444.446 1142.88 559.749 1183.73 586.435C1343.11 690.563 1364.24 805.87 1478.51 808.936C1562.1 811.268 1586.78 750.545 1717.5 724.837C1808.51 706.972 1888.16 718.34 1941.84 730.944" stroke="#00B7CE" stroke-width="1.53134" stroke-miterlimit="10"/>
<path d="M-4.15721 328.724C69.8258 372.346 135.33 428.961 189.205 495.847C316.063 654.773 298.769 780.81 371.531 800.529C483.935 831.14 556.677 538.444 793.011 492.158C966.49 458.221 1142.98 573.524 1183.84 600.239C1343.21 704.338 1364.31 819.647 1478.61 822.741C1562.2 825.073 1586.86 764.351 1717.61 738.67C1808.64 720.774 1888.26 732.145 1941.95 744.777" stroke="#00B7CE" stroke-width="1.53134" stroke-miterlimit="10"/>
<path d="M-4.20112 342.516C69.7819 386.138 135.286 442.752 189.161 509.639C316.019 668.565 298.725 794.602 371.516 814.319C483.997 844.776 556.658 552.174 793.114 505.939C966.564 472.003 1143.05 587.219 1183.94 614.02C1343.28 718.121 1364.41 833.457 1478.68 836.523C1562.28 838.855 1586.96 778.161 1717.68 752.453C1808.71 734.556 1888.34 745.927 1942.02 758.56" stroke="#00B7CE" stroke-width="1.53134" stroke-miterlimit="10"/>
<path d="M-4.09881 356.296C69.8774 399.927 135.38 456.541 189.264 523.419C316.124 682.374 298.827 808.382 371.589 828.101C484.099 858.556 556.731 565.957 793.187 519.721C966.666 485.784 1143.16 601.087 1184.01 627.802C1343.38 731.901 1364.49 847.239 1478.79 850.303C1562.38 852.636 1587.04 791.944 1717.78 766.233C1808.82 748.337 1888.44 759.708 1942.12 772.34" stroke="#00B7CE" stroke-width="1.53134" stroke-miterlimit="10"/>
</g>
</svg>
